<svg width="128" height="128" viewBox="0 0 128 128" fill="none" xmlns="http://www.w3.org/2000/svg">
<g clip-path="url(#clip0_1_2)">
<rect width="128" height="128" rx="5" fill="#1F2022"/>
<path fill-rule="evenodd" clip-rule="evenodd" d="M87.2063 21.1228C102.784 29.3152 113.425 45.6484 113.425 64.4755C113.425 83.3027 102.784 99.6874 87.2063 107.83V102.231C93.1636 98.6677 98.2028 93.6812 101.87 87.7793L87.2063 81.8272V72.7696L103.294 85.3382C106.654 79.1299 108.538 72.0563 108.538 64.4743C108.538 48.4964 99.9835 34.4536 87.2063 26.7183V21.1228ZM64.5515 15.5763C72.6975 15.5763 80.3838 17.5616 87.2063 21.1228V26.7209C80.9439 22.9537 73.6129 20.716 65.875 20.4611L71.4744 60.5075L87.2063 72.7709V81.8285L64.4485 72.6177L41.8439 81.8787V72.8713L57.6775 60.5062L63.2267 20.4598C55.3858 20.7147 48.1063 22.9537 41.8439 26.7183V21.1228C48.6161 17.5616 56.354 15.5763 64.5515 15.5763ZM87.2063 107.83C80.3838 111.391 72.6962 113.425 64.5515 113.425C56.3553 113.425 48.6174 111.391 41.8451 107.88V102.231C48.4642 106.25 56.2523 108.54 64.5515 108.54C72.7992 108.54 80.5383 106.25 87.2063 102.231V107.83ZM41.8451 107.88C26.2149 99.6874 15.575 83.3027 15.575 64.4755C15.575 45.6484 26.2149 29.3152 41.8451 21.1228V26.7209C29.0152 34.4549 20.4623 48.4475 20.4623 64.4755C20.4623 72.0563 22.3975 79.2329 25.7578 85.4399L41.8451 72.8713V81.8787L27.2333 87.881C30.8988 93.7353 35.8879 98.669 41.8451 102.231V107.88Z" fill="#FEFEFE"/>
</g>
<defs>
<clipPath id="clip0_1_2">
<rect width="128" height="128" fill="white"/>
</clipPath>
</defs>
</svg>